<svg xmlns="http://www.w3.org/2000/svg" xmlns:xlink="http://www.w3.org/1999/xlink" width="107" zoomAndPan="magnify" viewBox="0 0 80.25 30.000001" height="40" preserveAspectRatio="xMidYMid meet" version="1.0"><defs><g/><clipPath id="508757999b"><path d="M 0.929688 0 L 78.59375 0 L 78.59375 29.03125 L 0.929688 29.03125 Z M 0.929688 0 " clip-rule="nonzero"/></clipPath><clipPath id="1f16da0419"><path d="M 18.035156 9.597656 L 23.84375 9.597656 L 23.84375 18 L 18.035156 18 Z M 18.035156 9.597656 " clip-rule="nonzero"/></clipPath></defs><g clip-path="url(#508757999b)"><path fill="#ffffff" d="M 0.929688 0 L 78.59375 0 L 78.59375 29.03125 L 0.929688 29.03125 Z M 0.929688 0 " fill-opacity="1" fill-rule="nonzero"/><path fill="#ffffff" d="M 0.929688 0 L 78.59375 0 L 78.59375 29.03125 L 0.929688 29.03125 Z M 0.929688 0 " fill-opacity="1" fill-rule="nonzero"/></g><g fill="#f58716" fill-opacity="1"><g transform="translate(30.033312, 13.637378)"><g><path d="M 0.890625 0 L -0.046875 0 L 1.234375 -3.375 L 2.203125 -3.375 L 3.46875 0 L 2.53125 0 L 2.3125 -0.609375 L 1.109375 -0.609375 Z M 1.328125 -1.234375 L 2.09375 -1.234375 L 1.71875 -2.359375 Z M 1.328125 -1.234375 "/></g></g></g><g fill="#f58716" fill-opacity="1"><g transform="translate(34.424641, 13.637378)"><g><path d="M 1.71875 -1.015625 L 2.53125 -3.375 L 3.46875 -3.375 L 2.203125 0 L 1.234375 0 L -0.046875 -3.375 L 0.890625 -3.375 Z M 1.71875 -1.015625 "/></g></g></g><g fill="#f58716" fill-opacity="1"><g transform="translate(38.815969, 13.637378)"><g><path d="M 2.96875 0 L 0.296875 0 L 0.296875 -3.375 L 2.96875 -3.375 L 2.96875 -2.703125 L 1.15625 -2.703125 L 1.15625 -2.046875 L 2.578125 -2.046875 L 2.578125 -1.375 L 1.15625 -1.375 L 1.15625 -0.671875 L 2.96875 -0.671875 Z M 2.96875 0 "/></g></g></g><g fill="#f58716" fill-opacity="1"><g transform="translate(42.845406, 13.637378)"><g><path d="M 3.234375 0 L 2.3125 0 L 1.15625 -2.03125 L 1.15625 0 L 0.296875 0 L 0.296875 -3.375 L 1.203125 -3.375 L 2.359375 -1.359375 L 2.359375 -3.375 L 3.234375 -3.375 Z M 3.234375 0 "/></g></g></g><g fill="#f58716" fill-opacity="1"><g transform="translate(47.333239, 13.637378)"><g><path d="M 3.1875 -0.078125 C 2.4375 0.00390625 1.742188 0.046875 1.109375 0.046875 C 0.796875 0.046875 0.5625 -0.0234375 0.40625 -0.171875 C 0.257812 -0.316406 0.1875 -0.550781 0.1875 -0.875 L 0.1875 -2.421875 C 0.1875 -2.753906 0.265625 -2.992188 0.421875 -3.140625 C 0.578125 -3.296875 0.820312 -3.375 1.15625 -3.375 L 2.890625 -3.375 L 2.890625 -2.703125 L 1.359375 -2.703125 C 1.160156 -2.703125 1.0625 -2.609375 1.0625 -2.421875 L 1.0625 -0.875 C 1.0625 -0.800781 1.082031 -0.738281 1.125 -0.6875 C 1.164062 -0.644531 1.222656 -0.625 1.296875 -0.625 C 1.671875 -0.625 2.007812 -0.632812 2.3125 -0.65625 L 2.3125 -1.359375 L 1.6875 -1.359375 L 1.6875 -1.9375 L 3.1875 -1.9375 Z M 3.1875 -0.078125 "/></g></g></g><g fill="#f58716" fill-opacity="1"><g transform="translate(51.676315, 13.637378)"><g><path d="M 2.96875 0 L 0.296875 0 L 0.296875 -3.375 L 2.96875 -3.375 L 2.96875 -2.703125 L 1.15625 -2.703125 L 1.15625 -2.046875 L 2.578125 -2.046875 L 2.578125 -1.375 L 1.15625 -1.375 L 1.15625 -0.671875 L 2.96875 -0.671875 Z M 2.96875 0 "/></g></g></g><g fill="#f58716" fill-opacity="1"><g transform="translate(55.705752, 13.637378)"><g><path d="M 0.296875 -3.375 L 2.3125 -3.375 C 2.65625 -3.375 2.898438 -3.296875 3.046875 -3.140625 C 3.203125 -2.992188 3.28125 -2.753906 3.28125 -2.421875 L 3.28125 -1.984375 C 3.28125 -1.710938 3.234375 -1.503906 3.140625 -1.359375 C 3.054688 -1.210938 2.921875 -1.113281 2.734375 -1.0625 L 3.328125 0 L 2.390625 0 L 1.828125 -1.015625 L 1.15625 -1.015625 L 1.15625 0 L 0.296875 0 Z M 2.421875 -2.421875 C 2.421875 -2.609375 2.320312 -2.703125 2.125 -2.703125 L 1.15625 -2.703125 L 1.15625 -1.6875 L 2.125 -1.6875 C 2.320312 -1.6875 2.421875 -1.785156 2.421875 -1.984375 Z M 2.421875 -2.421875 "/></g></g></g><g fill="#f58716" fill-opacity="1"><g transform="translate(60.145333, 13.637378)"><g><path d="M 0.1875 -0.703125 C 1.070312 -0.648438 1.671875 -0.625 1.984375 -0.625 C 2.054688 -0.625 2.113281 -0.644531 2.15625 -0.6875 C 2.195312 -0.738281 2.21875 -0.800781 2.21875 -0.875 L 2.21875 -1.296875 L 1.109375 -1.296875 C 0.773438 -1.296875 0.53125 -1.375 0.375 -1.53125 C 0.21875 -1.6875 0.140625 -1.929688 0.140625 -2.265625 L 0.140625 -2.421875 C 0.140625 -2.753906 0.21875 -2.992188 0.375 -3.140625 C 0.53125 -3.296875 0.773438 -3.375 1.109375 -3.375 L 2.8125 -3.375 L 2.8125 -2.703125 L 1.296875 -2.703125 C 1.109375 -2.703125 1.015625 -2.609375 1.015625 -2.421875 L 1.015625 -2.3125 C 1.015625 -2.125 1.109375 -2.03125 1.296875 -2.03125 L 2.171875 -2.03125 C 2.484375 -2.03125 2.710938 -1.953125 2.859375 -1.796875 C 3.015625 -1.648438 3.09375 -1.421875 3.09375 -1.109375 L 3.09375 -0.875 C 3.09375 -0.550781 3.015625 -0.316406 2.859375 -0.171875 C 2.710938 -0.0234375 2.484375 0.046875 2.171875 0.046875 C 2.003906 0.046875 1.832031 0.0390625 1.65625 0.03125 L 1.203125 0.015625 C 0.878906 0.00390625 0.539062 -0.015625 0.1875 -0.046875 Z M 0.1875 -0.703125 "/></g></g></g><g fill="#f58716" fill-opacity="1"><g transform="translate(31.143302, 17.648164)"><g><path d="M 0.484375 0 L -0.03125 0 L 0.671875 -1.84375 L 1.203125 -1.84375 L 1.90625 0 L 1.390625 0 L 1.265625 -0.328125 L 0.609375 -0.328125 Z M 0.71875 -0.671875 L 1.15625 -0.671875 L 0.9375 -1.296875 Z M 0.71875 -0.671875 "/></g></g></g><g fill="#f58716" fill-opacity="1"><g transform="translate(34.460938, 17.648164)"><g><path d="M 0.109375 -0.390625 C 0.585938 -0.359375 0.910156 -0.34375 1.078125 -0.34375 C 1.117188 -0.34375 1.148438 -0.351562 1.171875 -0.375 C 1.203125 -0.40625 1.21875 -0.4375 1.21875 -0.46875 L 1.21875 -0.71875 L 0.609375 -0.71875 C 0.421875 -0.71875 0.285156 -0.757812 0.203125 -0.84375 C 0.117188 -0.925781 0.078125 -1.054688 0.078125 -1.234375 L 0.078125 -1.328125 C 0.078125 -1.503906 0.117188 -1.632812 0.203125 -1.71875 C 0.285156 -1.800781 0.421875 -1.84375 0.609375 -1.84375 L 1.53125 -1.84375 L 1.53125 -1.484375 L 0.71875 -1.484375 C 0.601562 -1.484375 0.546875 -1.429688 0.546875 -1.328125 L 0.546875 -1.265625 C 0.546875 -1.160156 0.601562 -1.109375 0.71875 -1.109375 L 1.1875 -1.109375 C 1.363281 -1.109375 1.488281 -1.066406 1.5625 -0.984375 C 1.644531 -0.898438 1.6875 -0.773438 1.6875 -0.609375 L 1.6875 -0.46875 C 1.6875 -0.300781 1.644531 -0.175781 1.5625 -0.09375 C 1.488281 -0.0078125 1.363281 0.03125 1.1875 0.03125 C 1.09375 0.03125 1 0.0234375 0.90625 0.015625 L 0.65625 0.015625 C 0.476562 0.00390625 0.296875 -0.0078125 0.109375 -0.03125 Z M 0.109375 -0.390625 "/></g></g></g><g fill="#f58716" fill-opacity="1"><g transform="translate(37.673101, 17.648164)"><g><path d="M 0.109375 -0.390625 C 0.585938 -0.359375 0.910156 -0.34375 1.078125 -0.34375 C 1.117188 -0.34375 1.148438 -0.351562 1.171875 -0.375 C 1.203125 -0.40625 1.21875 -0.4375 1.21875 -0.46875 L 1.21875 -0.71875 L 0.609375 -0.71875 C 0.421875 -0.71875 0.285156 -0.757812 0.203125 -0.84375 C 0.117188 -0.925781 0.078125 -1.054688 0.078125 -1.234375 L 0.078125 -1.328125 C 0.078125 -1.503906 0.117188 -1.632812 0.203125 -1.71875 C 0.285156 -1.800781 0.421875 -1.84375 0.609375 -1.84375 L 1.53125 -1.84375 L 1.53125 -1.484375 L 0.71875 -1.484375 C 0.601562 -1.484375 0.546875 -1.429688 0.546875 -1.328125 L 0.546875 -1.265625 C 0.546875 -1.160156 0.601562 -1.109375 0.71875 -1.109375 L 1.1875 -1.109375 C 1.363281 -1.109375 1.488281 -1.066406 1.5625 -0.984375 C 1.644531 -0.898438 1.6875 -0.773438 1.6875 -0.609375 L 1.6875 -0.46875 C 1.6875 -0.300781 1.644531 -0.175781 1.5625 -0.09375 C 1.488281 -0.0078125 1.363281 0.03125 1.1875 0.03125 C 1.09375 0.03125 1 0.0234375 0.90625 0.015625 L 0.65625 0.015625 C 0.476562 0.00390625 0.296875 -0.0078125 0.109375 -0.03125 Z M 0.109375 -0.390625 "/></g></g></g><g fill="#f58716" fill-opacity="1"><g transform="translate(40.885263, 17.648164)"><g><path d="M 1.625 0 L 0.15625 0 L 0.15625 -1.84375 L 1.625 -1.84375 L 1.625 -1.484375 L 0.640625 -1.484375 L 0.640625 -1.125 L 1.40625 -1.125 L 1.40625 -0.75 L 0.640625 -0.75 L 0.640625 -0.375 L 1.625 -0.375 Z M 1.625 0 "/></g></g></g><g fill="#f58716" fill-opacity="1"><g transform="translate(44.005135, 17.648164)"><g><path d="M 1.75 -1.03125 L 1.375 -0.375 L 1 -0.375 L 0.640625 -1.03125 L 0.640625 0 L 0.15625 0 L 0.15625 -1.84375 L 0.65625 -1.84375 L 1.1875 -0.875 L 1.71875 -1.84375 L 2.21875 -1.84375 L 2.21875 0 L 1.75 0 Z M 1.75 -1.03125 "/></g></g></g><g fill="#f58716" fill-opacity="1"><g transform="translate(47.823771, 17.648164)"><g><path d="M 0.15625 -1.84375 L 1.21875 -1.84375 C 1.382812 -1.84375 1.507812 -1.800781 1.59375 -1.71875 C 1.675781 -1.644531 1.71875 -1.53125 1.71875 -1.375 C 1.71875 -1.269531 1.691406 -1.179688 1.640625 -1.109375 C 1.597656 -1.046875 1.546875 -1.003906 1.484375 -0.984375 C 1.617188 -0.941406 1.710938 -0.84375 1.765625 -0.6875 C 1.785156 -0.632812 1.796875 -0.570312 1.796875 -0.5 C 1.796875 -0.332031 1.753906 -0.207031 1.671875 -0.125 C 1.585938 -0.0390625 1.460938 0 1.296875 0 L 0.15625 0 Z M 1.328125 -0.578125 C 1.328125 -0.679688 1.269531 -0.734375 1.15625 -0.734375 L 0.640625 -0.734375 L 0.640625 -0.375 L 1.15625 -0.375 C 1.269531 -0.375 1.328125 -0.425781 1.328125 -0.53125 Z M 1.234375 -1.328125 C 1.234375 -1.429688 1.179688 -1.484375 1.078125 -1.484375 L 0.640625 -1.484375 L 0.640625 -1.109375 L 1.078125 -1.109375 C 1.179688 -1.109375 1.234375 -1.160156 1.234375 -1.265625 Z M 1.234375 -1.328125 "/></g></g></g><g fill="#f58716" fill-opacity="1"><g transform="translate(51.141407, 17.648164)"><g><path d="M 0.640625 -0.375 L 1.59375 -0.375 L 1.59375 0 L 0.15625 0 L 0.15625 -1.84375 L 0.640625 -1.84375 Z M 0.640625 -0.375 "/></g></g></g><g fill="#f58716" fill-opacity="1"><g transform="translate(54.208544, 17.648164)"><g><path d="M 1.625 0 L 0.15625 0 L 0.15625 -1.84375 L 1.625 -1.84375 L 1.625 -1.484375 L 0.640625 -1.484375 L 0.640625 -1.125 L 1.40625 -1.125 L 1.40625 -0.75 L 0.640625 -0.75 L 0.640625 -0.375 L 1.625 -0.375 Z M 1.625 0 "/></g></g></g><path stroke-linecap="round" transform="matrix(0, 0.725806, -0.725806, 0, 26.608799, 9.602616)" fill="none" stroke-linejoin="miter" d="M 0.499069 0.499727 L 11.010007 0.499727 " stroke="#f58716" stroke-width="1" stroke-opacity="1" stroke-miterlimit="4"/><g clip-path="url(#1f16da0419)"><path fill="#f58716" d="M 21.472656 9.632812 C 21.320312 9.613281 21.167969 9.605469 21.015625 9.605469 C 20.859375 9.605469 20.707031 9.617188 20.558594 9.632812 C 19.042969 9.820312 18.035156 11.246094 18.035156 12.683594 C 18.035156 13.609375 18.503906 14.46875 18.976562 15.261719 C 19.464844 16.058594 20 16.824219 20.585938 17.554688 C 20.695312 17.691406 20.84375 17.929688 21.015625 17.941406 L 21.015625 17.9375 C 21.183594 17.929688 21.332031 17.691406 21.441406 17.554688 C 22.027344 16.820312 22.5625 16.058594 23.050781 15.257812 C 23.527344 14.464844 23.992188 13.609375 23.992188 12.679688 C 23.992188 11.242188 22.988281 9.816406 21.472656 9.632812 Z M 21.015625 15.113281 C 20.679688 15.113281 20.355469 15.046875 20.046875 14.917969 C 19.734375 14.792969 19.460938 14.609375 19.226562 14.371094 C 18.988281 14.132812 18.804688 13.859375 18.675781 13.550781 C 18.546875 13.242188 18.484375 12.917969 18.484375 12.582031 C 18.484375 12.246094 18.546875 11.921875 18.675781 11.613281 C 18.804688 11.304688 18.988281 11.03125 19.226562 10.792969 C 19.460938 10.554688 19.734375 10.371094 20.046875 10.246094 C 20.355469 10.117188 20.679688 10.050781 21.015625 10.050781 C 21.347656 10.050781 21.671875 10.117188 21.980469 10.246094 C 22.292969 10.371094 22.566406 10.554688 22.804688 10.792969 C 23.039062 11.03125 23.222656 11.304688 23.351562 11.613281 C 23.480469 11.921875 23.542969 12.246094 23.542969 12.582031 C 23.542969 12.917969 23.480469 13.242188 23.351562 13.550781 C 23.222656 13.859375 23.039062 14.132812 22.804688 14.371094 C 22.566406 14.609375 22.292969 14.792969 21.980469 14.917969 C 21.671875 15.046875 21.347656 15.113281 21.015625 15.113281 Z M 21.015625 15.113281 " fill-opacity="1" fill-rule="nonzero"/></g><path fill="#f58716" d="M 20.882812 10.796875 C 20.8125 10.796875 20.753906 10.886719 20.753906 10.996094 L 20.753906 11.6875 C 20.753906 11.746094 20.726562 11.789062 20.6875 11.789062 C 20.652344 11.789062 20.625 11.746094 20.625 11.6875 L 20.625 10.996094 C 20.625 10.886719 20.566406 10.796875 20.492188 10.796875 C 20.421875 10.796875 20.363281 10.886719 20.363281 10.996094 L 20.363281 11.6875 C 20.363281 11.746094 20.335938 11.789062 20.296875 11.789062 C 20.261719 11.789062 20.234375 11.746094 20.234375 11.6875 L 20.234375 10.996094 C 20.234375 10.886719 20.175781 10.796875 20.101562 10.796875 C 20.03125 10.796875 19.972656 10.886719 19.972656 10.996094 L 19.972656 11.425781 C 19.960938 11.761719 20.058594 12.058594 20.265625 12.324219 L 20.347656 12.417969 L 20.257812 13.972656 C 20.242188 14.183594 20.351562 14.367188 20.492188 14.367188 C 20.632812 14.367188 20.742188 14.183594 20.730469 13.972656 L 20.636719 12.417969 L 20.71875 12.324219 C 20.925781 12.058594 21.023438 11.761719 21.015625 11.425781 L 21.015625 10.996094 C 21.015625 10.886719 20.957031 10.796875 20.882812 10.796875 Z M 20.882812 10.796875 " fill-opacity="1" fill-rule="nonzero"/><path fill="#f58716" d="M 21.328125 12.796875 L 21.683594 12.796875 L 21.582031 14.109375 C 21.574219 14.175781 21.589844 14.238281 21.636719 14.292969 C 21.679688 14.34375 21.738281 14.371094 21.808594 14.375 C 21.878906 14.378906 21.9375 14.355469 21.988281 14.304688 C 22.035156 14.257812 22.058594 14.195312 22.054688 14.125 L 22.054688 10.796875 C 21.144531 10.796875 21.328125 12.796875 21.328125 12.796875 Z M 21.328125 12.796875 " fill-opacity="1" fill-rule="nonzero"/></svg>