<svg xmlns="http://www.w3.org/2000/svg" xmlns:xlink="http://www.w3.org/1999/xlink" width="107" zoomAndPan="magnify" viewBox="0 0 80.25 30.000001" height="40" preserveAspectRatio="xMidYMid meet" version="1.0"><defs><g/><clipPath id="05e11c2079"><path d="M 0.929688 6.492188 L 11 6.492188 L 11 20.28125 L 0.929688 20.28125 Z M 0.929688 6.492188 " clip-rule="nonzero"/></clipPath></defs><g fill="#f58716" fill-opacity="1"><g transform="translate(21.039659, 13.261021)"><g><path d="M 1.5 0 L -0.078125 0 L 2.0625 -5.671875 L 3.6875 -5.671875 L 5.828125 0 L 4.25 0 L 3.890625 -1.015625 L 1.859375 -1.015625 Z M 2.21875 -2.0625 L 3.515625 -2.0625 L 2.875 -3.96875 Z M 2.21875 -2.0625 "/></g></g></g><g fill="#f58716" fill-opacity="1"><g transform="translate(28.400421, 13.261021)"><g><path d="M 2.875 -1.703125 L 4.25 -5.671875 L 5.828125 -5.671875 L 3.6875 0 L 2.0625 0 L -0.078125 -5.671875 L 1.5 -5.671875 Z M 2.875 -1.703125 "/></g></g></g><g fill="#f58716" fill-opacity="1"><g transform="translate(35.761183, 13.261021)"><g><path d="M 4.984375 0 L 0.484375 0 L 0.484375 -5.671875 L 4.984375 -5.671875 L 4.984375 -4.53125 L 1.9375 -4.53125 L 1.9375 -3.4375 L 4.328125 -3.4375 L 4.328125 -2.3125 L 1.9375 -2.3125 L 1.9375 -1.140625 L 4.984375 -1.140625 Z M 4.984375 0 "/></g></g></g><g fill="#f58716" fill-opacity="1"><g transform="translate(42.515341, 13.261021)"><g><path d="M 5.421875 0 L 3.890625 0 L 1.9375 -3.40625 L 1.9375 0 L 0.484375 0 L 0.484375 -5.671875 L 2.03125 -5.671875 L 3.96875 -2.265625 L 3.96875 -5.671875 L 5.421875 -5.671875 Z M 5.421875 0 "/></g></g></g><g fill="#f58716" fill-opacity="1"><g transform="translate(50.037863, 13.261021)"><g><path d="M 5.34375 -0.125 C 4.082031 0.0078125 2.921875 0.078125 1.859375 0.078125 C 1.328125 0.078125 0.9375 -0.0390625 0.6875 -0.28125 C 0.445312 -0.53125 0.328125 -0.921875 0.328125 -1.453125 L 0.328125 -4.046875 C 0.328125 -4.609375 0.453125 -5.019531 0.703125 -5.28125 C 0.960938 -5.539062 1.375 -5.671875 1.9375 -5.671875 L 4.859375 -5.671875 L 4.859375 -4.53125 L 2.265625 -4.53125 C 1.941406 -4.53125 1.78125 -4.367188 1.78125 -4.046875 L 1.78125 -1.453125 C 1.78125 -1.328125 1.816406 -1.226562 1.890625 -1.15625 C 1.960938 -1.082031 2.0625 -1.046875 2.1875 -1.046875 C 2.800781 -1.046875 3.367188 -1.0625 3.890625 -1.09375 L 3.890625 -2.265625 L 2.828125 -2.265625 L 2.828125 -3.234375 L 5.34375 -3.234375 Z M 5.34375 -0.125 "/></g></g></g><g fill="#f58716" fill-opacity="1"><g transform="translate(57.317743, 13.261021)"><g><path d="M 4.984375 0 L 0.484375 0 L 0.484375 -5.671875 L 4.984375 -5.671875 L 4.984375 -4.53125 L 1.9375 -4.53125 L 1.9375 -3.4375 L 4.328125 -3.4375 L 4.328125 -2.3125 L 1.9375 -2.3125 L 1.9375 -1.140625 L 4.984375 -1.140625 Z M 4.984375 0 "/></g></g></g><g fill="#f58716" fill-opacity="1"><g transform="translate(64.071901, 13.261021)"><g><path d="M 0.484375 -5.671875 L 3.890625 -5.671875 C 4.453125 -5.671875 4.859375 -5.539062 5.109375 -5.28125 C 5.367188 -5.019531 5.5 -4.609375 5.5 -4.046875 L 5.5 -3.3125 C 5.5 -2.863281 5.425781 -2.515625 5.28125 -2.265625 C 5.132812 -2.023438 4.898438 -1.863281 4.578125 -1.78125 L 5.578125 0 L 4 0 L 3.078125 -1.703125 L 1.9375 -1.703125 L 1.9375 0 L 0.484375 0 Z M 4.046875 -4.046875 C 4.046875 -4.367188 3.882812 -4.53125 3.5625 -4.53125 L 1.9375 -4.53125 L 1.9375 -2.828125 L 3.5625 -2.828125 C 3.882812 -2.828125 4.046875 -2.988281 4.046875 -3.3125 Z M 4.046875 -4.046875 "/></g></g></g><g fill="#f58716" fill-opacity="1"><g transform="translate(71.513545, 13.261021)"><g><path d="M 0.3125 -1.171875 C 1.789062 -1.085938 2.789062 -1.046875 3.3125 -1.046875 C 3.4375 -1.046875 3.535156 -1.082031 3.609375 -1.15625 C 3.679688 -1.226562 3.71875 -1.328125 3.71875 -1.453125 L 3.71875 -2.1875 L 1.859375 -2.1875 C 1.296875 -2.1875 0.882812 -2.3125 0.625 -2.5625 C 0.375 -2.820312 0.25 -3.234375 0.25 -3.796875 L 0.25 -4.046875 C 0.25 -4.609375 0.375 -5.019531 0.625 -5.28125 C 0.882812 -5.539062 1.296875 -5.671875 1.859375 -5.671875 L 4.703125 -5.671875 L 4.703125 -4.53125 L 2.1875 -4.53125 C 1.863281 -4.53125 1.703125 -4.367188 1.703125 -4.046875 L 1.703125 -3.890625 C 1.703125 -3.566406 1.863281 -3.40625 2.1875 -3.40625 L 3.640625 -3.40625 C 4.171875 -3.40625 4.5625 -3.28125 4.8125 -3.03125 C 5.0625 -2.78125 5.1875 -2.390625 5.1875 -1.859375 L 5.1875 -1.453125 C 5.1875 -0.921875 5.0625 -0.53125 4.8125 -0.28125 C 4.5625 -0.0390625 4.171875 0.078125 3.640625 0.078125 C 3.367188 0.078125 3.078125 0.0703125 2.765625 0.0625 L 2.03125 0.03125 C 1.476562 0 0.90625 -0.0351562 0.3125 -0.078125 Z M 0.3125 -1.171875 "/></g></g></g><g fill="#f58716" fill-opacity="1"><g transform="translate(22.900225, 19.983915)"><g><path d="M 0.8125 0 L -0.046875 0 L 1.125 -3.09375 L 2.015625 -3.09375 L 3.1875 0 L 2.328125 0 L 2.125 -0.546875 L 1.015625 -0.546875 Z M 1.21875 -1.125 L 1.921875 -1.125 L 1.5625 -2.171875 Z M 1.21875 -1.125 "/></g></g></g><g fill="#f58716" fill-opacity="1"><g transform="translate(28.461259, 19.983915)"><g><path d="M 0.171875 -0.640625 C 0.984375 -0.597656 1.53125 -0.578125 1.8125 -0.578125 C 1.882812 -0.578125 1.9375 -0.59375 1.96875 -0.625 C 2.007812 -0.664062 2.03125 -0.722656 2.03125 -0.796875 L 2.03125 -1.1875 L 1.015625 -1.1875 C 0.703125 -1.1875 0.472656 -1.253906 0.328125 -1.390625 C 0.191406 -1.535156 0.125 -1.765625 0.125 -2.078125 L 0.125 -2.21875 C 0.125 -2.519531 0.191406 -2.738281 0.328125 -2.875 C 0.472656 -3.019531 0.703125 -3.09375 1.015625 -3.09375 L 2.5625 -3.09375 L 2.5625 -2.46875 L 1.1875 -2.46875 C 1.007812 -2.46875 0.921875 -2.382812 0.921875 -2.21875 L 0.921875 -2.125 C 0.921875 -1.945312 1.007812 -1.859375 1.1875 -1.859375 L 1.984375 -1.859375 C 2.273438 -1.859375 2.488281 -1.789062 2.625 -1.65625 C 2.757812 -1.519531 2.828125 -1.304688 2.828125 -1.015625 L 2.828125 -0.796875 C 2.828125 -0.503906 2.757812 -0.289062 2.625 -0.15625 C 2.488281 -0.0195312 2.273438 0.046875 1.984375 0.046875 C 1.835938 0.046875 1.679688 0.0390625 1.515625 0.03125 L 1.109375 0.015625 C 0.804688 0.00390625 0.492188 -0.015625 0.171875 -0.046875 Z M 0.171875 -0.640625 "/></g></g></g><g fill="#f58716" fill-opacity="1"><g transform="translate(33.845498, 19.983915)"><g><path d="M 0.171875 -0.640625 C 0.984375 -0.597656 1.53125 -0.578125 1.8125 -0.578125 C 1.882812 -0.578125 1.9375 -0.59375 1.96875 -0.625 C 2.007812 -0.664062 2.03125 -0.722656 2.03125 -0.796875 L 2.03125 -1.1875 L 1.015625 -1.1875 C 0.703125 -1.1875 0.472656 -1.253906 0.328125 -1.390625 C 0.191406 -1.535156 0.125 -1.765625 0.125 -2.078125 L 0.125 -2.21875 C 0.125 -2.519531 0.191406 -2.738281 0.328125 -2.875 C 0.472656 -3.019531 0.703125 -3.09375 1.015625 -3.09375 L 2.5625 -3.09375 L 2.5625 -2.46875 L 1.1875 -2.46875 C 1.007812 -2.46875 0.921875 -2.382812 0.921875 -2.21875 L 0.921875 -2.125 C 0.921875 -1.945312 1.007812 -1.859375 1.1875 -1.859375 L 1.984375 -1.859375 C 2.273438 -1.859375 2.488281 -1.789062 2.625 -1.65625 C 2.757812 -1.519531 2.828125 -1.304688 2.828125 -1.015625 L 2.828125 -0.796875 C 2.828125 -0.503906 2.757812 -0.289062 2.625 -0.15625 C 2.488281 -0.0195312 2.273438 0.046875 1.984375 0.046875 C 1.835938 0.046875 1.679688 0.0390625 1.515625 0.03125 L 1.109375 0.015625 C 0.804688 0.00390625 0.492188 -0.015625 0.171875 -0.046875 Z M 0.171875 -0.640625 "/></g></g></g><g fill="#f58716" fill-opacity="1"><g transform="translate(39.229737, 19.983915)"><g><path d="M 2.71875 0 L 0.265625 0 L 0.265625 -3.09375 L 2.71875 -3.09375 L 2.71875 -2.46875 L 1.0625 -2.46875 L 1.0625 -1.875 L 2.359375 -1.875 L 2.359375 -1.265625 L 1.0625 -1.265625 L 1.0625 -0.625 L 2.71875 -0.625 Z M 2.71875 0 "/></g></g></g><g fill="#f58716" fill-opacity="1"><g transform="translate(44.459279, 19.983915)"><g><path d="M 2.921875 -1.71875 L 2.296875 -0.625 L 1.6875 -0.625 L 1.0625 -1.71875 L 1.0625 0 L 0.265625 0 L 0.265625 -3.09375 L 1.109375 -3.09375 L 1.984375 -1.453125 L 2.875 -3.09375 L 3.71875 -3.09375 L 3.71875 0 L 2.921875 0 Z M 2.921875 -1.71875 "/></g></g></g><g fill="#f58716" fill-opacity="1"><g transform="translate(50.860091, 19.983915)"><g><path d="M 0.265625 -3.09375 L 2.03125 -3.09375 C 2.320312 -3.09375 2.535156 -3.023438 2.671875 -2.890625 C 2.804688 -2.765625 2.875 -2.566406 2.875 -2.296875 C 2.875 -2.117188 2.832031 -1.972656 2.75 -1.859375 C 2.675781 -1.753906 2.582031 -1.679688 2.46875 -1.640625 C 2.707031 -1.566406 2.875 -1.40625 2.96875 -1.15625 C 2.988281 -1.0625 3 -0.957031 3 -0.84375 C 3 -0.550781 2.929688 -0.335938 2.796875 -0.203125 C 2.660156 -0.0664062 2.453125 0 2.171875 0 L 0.265625 0 Z M 2.21875 -0.96875 C 2.21875 -1.144531 2.128906 -1.234375 1.953125 -1.234375 L 1.0625 -1.234375 L 1.0625 -0.625 L 1.953125 -0.625 C 2.128906 -0.625 2.21875 -0.710938 2.21875 -0.890625 Z M 2.078125 -2.21875 C 2.078125 -2.382812 1.988281 -2.46875 1.8125 -2.46875 L 1.0625 -2.46875 L 1.0625 -1.859375 L 1.8125 -1.859375 C 1.988281 -1.859375 2.078125 -1.945312 2.078125 -2.125 Z M 2.078125 -2.21875 "/></g></g></g><g fill="#f58716" fill-opacity="1"><g transform="translate(56.421126, 19.983915)"><g><path d="M 1.0625 -0.625 L 2.671875 -0.625 L 2.671875 0 L 0.265625 0 L 0.265625 -3.09375 L 1.0625 -3.09375 Z M 1.0625 -0.625 "/></g></g></g><g fill="#f58716" fill-opacity="1"><g transform="translate(61.562272, 19.983915)"><g><path d="M 2.71875 0 L 0.265625 0 L 0.265625 -3.09375 L 2.71875 -3.09375 L 2.71875 -2.46875 L 1.0625 -2.46875 L 1.0625 -1.875 L 2.359375 -1.875 L 2.359375 -1.265625 L 1.0625 -1.265625 L 1.0625 -0.625 L 2.71875 -0.625 Z M 2.71875 0 "/></g></g></g><path stroke-linecap="round" transform="matrix(0, 0.725806, -0.725806, 0, 15.055857, 6.496154)" fill="none" stroke-linejoin="miter" d="M 0.500437 0.502132 L 18.788285 0.502132 " stroke="#f58716" stroke-width="1" stroke-opacity="1" stroke-miterlimit="4"/><g clip-path="url(#05e11c2079)"><path fill="#f58716" d="M 6.695312 6.542969 C 6.441406 6.511719 6.183594 6.496094 5.925781 6.496094 L 5.925781 6.5 C 5.671875 6.496094 5.414062 6.511719 5.160156 6.542969 C 2.617188 6.855469 0.929688 9.246094 0.929688 11.660156 C 0.929688 13.21875 1.710938 14.65625 2.511719 15.984375 C 3.328125 17.328125 4.226562 18.609375 5.207031 19.835938 C 5.390625 20.066406 5.640625 20.464844 5.925781 20.484375 L 5.925781 20.480469 C 6.214844 20.464844 6.460938 20.066406 6.644531 19.832031 C 7.625 18.605469 8.527344 17.324219 9.34375 15.984375 C 10.140625 14.652344 10.921875 13.214844 10.921875 11.65625 C 10.921875 9.246094 9.238281 6.851562 6.695312 6.542969 Z M 5.925781 15.738281 C 5.648438 15.738281 5.371094 15.710938 5.097656 15.65625 C 4.824219 15.601562 4.558594 15.519531 4.300781 15.414062 C 4.042969 15.308594 3.800781 15.175781 3.566406 15.023438 C 3.335938 14.867188 3.121094 14.691406 2.925781 14.496094 C 2.726562 14.296875 2.550781 14.082031 2.394531 13.851562 C 2.242188 13.617188 2.109375 13.375 2.003906 13.117188 C 1.898438 12.859375 1.816406 12.59375 1.761719 12.320312 C 1.707031 12.046875 1.679688 11.769531 1.679688 11.492188 C 1.679688 11.210938 1.707031 10.9375 1.761719 10.664062 C 1.816406 10.390625 1.898438 10.125 2.003906 9.867188 C 2.109375 9.609375 2.242188 9.363281 2.394531 9.132812 C 2.550781 8.902344 2.726562 8.6875 2.925781 8.488281 C 3.121094 8.292969 3.335938 8.117188 3.566406 7.960938 C 3.800781 7.804688 4.042969 7.675781 4.300781 7.570312 C 4.558594 7.460938 4.824219 7.382812 5.097656 7.328125 C 5.371094 7.273438 5.648438 7.246094 5.925781 7.246094 C 6.207031 7.246094 6.480469 7.273438 6.753906 7.328125 C 7.027344 7.382812 7.292969 7.460938 7.550781 7.570312 C 7.808594 7.675781 8.054688 7.804688 8.285156 7.960938 C 8.519531 8.117188 8.734375 8.292969 8.929688 8.488281 C 9.125 8.6875 9.304688 8.902344 9.457031 9.132812 C 9.613281 9.363281 9.742188 9.609375 9.851562 9.867188 C 9.957031 10.125 10.039062 10.390625 10.089844 10.664062 C 10.144531 10.9375 10.171875 11.210938 10.171875 11.492188 C 10.171875 11.769531 10.144531 12.046875 10.089844 12.320312 C 10.039062 12.59375 9.957031 12.859375 9.851562 13.117188 C 9.742188 13.375 9.613281 13.617188 9.457031 13.851562 C 9.304688 14.082031 9.125 14.296875 8.929688 14.496094 C 8.734375 14.691406 8.519531 14.867188 8.285156 15.023438 C 8.054688 15.175781 7.808594 15.308594 7.550781 15.414062 C 7.292969 15.519531 7.027344 15.601562 6.753906 15.65625 C 6.480469 15.710938 6.207031 15.738281 5.925781 15.738281 Z M 5.925781 15.738281 " fill-opacity="1" fill-rule="nonzero"/></g><path fill="#f58716" d="M 5.707031 8.496094 C 5.589844 8.496094 5.488281 8.644531 5.488281 8.828125 L 5.488281 9.992188 C 5.488281 10.085938 5.441406 10.160156 5.378906 10.160156 C 5.320312 10.160156 5.269531 10.085938 5.269531 9.992188 L 5.269531 8.828125 C 5.269531 8.644531 5.171875 8.496094 5.054688 8.496094 C 4.933594 8.496094 4.835938 8.644531 4.835938 8.828125 L 4.835938 9.992188 C 4.835938 10.085938 4.785156 10.160156 4.726562 10.160156 C 4.664062 10.160156 4.617188 10.085938 4.617188 9.992188 L 4.617188 8.828125 C 4.617188 8.644531 4.515625 8.496094 4.398438 8.496094 C 4.277344 8.496094 4.179688 8.644531 4.179688 8.828125 L 4.179688 9.550781 C 4.160156 10.113281 4.328125 10.617188 4.671875 11.058594 L 4.8125 11.214844 L 4.65625 13.824219 C 4.632812 14.183594 4.816406 14.488281 5.054688 14.488281 C 5.289062 14.488281 5.472656 14.183594 5.449219 13.824219 L 5.292969 11.21875 L 5.433594 11.058594 C 5.78125 10.617188 5.945312 10.113281 5.925781 9.550781 L 5.925781 8.828125 C 5.925781 8.644531 5.828125 8.496094 5.707031 8.496094 Z M 5.707031 8.496094 " fill-opacity="1" fill-rule="nonzero"/><path fill="#f58716" d="M 6.453125 11.851562 L 7.054688 11.851562 L 6.878906 14.050781 C 6.863281 14.167969 6.894531 14.269531 6.972656 14.359375 C 7.046875 14.449219 7.144531 14.496094 7.261719 14.5 C 7.378906 14.503906 7.476562 14.464844 7.558594 14.382812 C 7.640625 14.300781 7.679688 14.199219 7.675781 14.082031 L 7.675781 8.496094 C 6.144531 8.496094 6.453125 11.851562 6.453125 11.851562 Z M 6.453125 11.851562 " fill-opacity="1" fill-rule="nonzero"/></svg>